<svg xmlns="http://www.w3.org/2000/svg" width="180" height="180" viewBox="0 0 180 180">
  <defs>
    <filter id="soft" x="-20%" y="-20%" width="140%" height="140%">
      <feGaussianBlur stdDeviation="0.6"/>
    </filter>
  </defs>
  <rect x="24" y="52" width="132" height="100" rx="8" fill="#f7f7f7" stroke="#333" stroke-width="2"/>
  <rect x="86" y="52" width="12" height="100" fill="#3c3c3c" filter="url(#soft)"/>
  <rect x="24" y="52" width="132" height="20" rx="2" fill="#ececec" stroke="#333" stroke-width="2"/>
  <rect x="24" y="96" width="132" height="8" fill="#e0e0e0"/>
  <path d="M90 52c0 0 6-16 18-18 10-2 18 6 18 6s-10 2-16 8-10 12-10 12h-10z" fill="#ededed" stroke="#333" stroke-width="2"/>
  <path d="M90 52c0 0-6-16-18-18-10-2-18 6-18 6s10 2 16 8 10 12 10 12h10z" fill="#ededed" stroke="#333" stroke-width="2"/>
  <rect x="24" y="52" width="132" height="8" fill="#3c3c3c" filter="url(#soft)"/>
</svg>
