<svg xmlns="http://www.w3.org/2000/svg" width="180" height="180" viewBox="0 0 180 180">
  <defs>
    <radialGradient id="glow" cx="50%" cy="50%" r="50%">
      <stop offset="0%" stop-color="#ffe3ec"/>
      <stop offset="50%" stop-color="#fff5f9"/>
      <stop offset="100%" stop-color="#ffffff"/>
    </radialGradient>
    <linearGradient id="shade" x1="0%" y1="0%" x2="100%" y2="100%">
      <stop offset="0%" stop-color="#f7f7f7"/>
      <stop offset="100%" stop-color="#e9e9e9"/>
    </linearGradient>
  </defs>
  <circle cx="90" cy="90" r="78" fill="url(#glow)" opacity="0.5"/>
  <g>
    <rect x="28" y="56" width="124" height="96" rx="10" fill="url(#shade)" stroke="#333" stroke-width="2"/>
    <rect x="88" y="56" width="12" height="96" fill="#3b3b3b"/>
    <rect x="28" y="56" width="124" height="24" rx="3" fill="#ececec" stroke="#333" stroke-width="2"/>
    <path d="M90 56c0 0 6-18 18-20 10-2 18 6 18 6s-10 2-16 8-10 14-10 14h-10z" fill="#ededed" stroke="#333" stroke-width="2"/>
    <path d="M90 56c0 0-6-18-18-20-10-2-18 6-18 6s10 2 16 8 10 14 10 14h10z" fill="#ededed" stroke="#333" stroke-width="2"/>
  </g>
  <g fill="#b03060" opacity="0.6">
    <circle cx="36" cy="30" r="3"/>
    <circle cx="150" cy="28" r="2.6"/>
    <circle cx="162" cy="48" r="2.2"/>
    <circle cx="22" cy="50" r="2.8"/>
    <circle cx="156" cy="154" r="2.4"/>
    <circle cx="26" cy="150" r="2.2"/>
  </g>
</svg>
