<svg xmlns="http://www.w3.org/2000/svg" width="1920" height="1080" viewBox="0 0 1920 1080">
  <defs>
    <radialGradient id="g" cx="50%" cy="40%" r="80%">
      <stop offset="0%" stop-color="#ffe3ec" />
      <stop offset="50%" stop-color="#fff5f9" />
      <stop offset="100%" stop-color="#ffffff" />
    </radialGradient>
    <linearGradient id="petal" x1="0%" y1="0%" x2="100%" y2="100%">
      <stop offset="0%" stop-color="#ffd6e3"/>
      <stop offset="100%" stop-color="#e78aa8"/>
    </linearGradient>
    <filter id="soft" x="-20%" y="-20%" width="140%" height="140%">
      <feGaussianBlur stdDeviation="12"/>
    </filter>
  </defs>
  <rect fill="url(#g)" x="0" y="0" width="1920" height="1080"/>
  <g opacity="0.28" filter="url(#soft)">
    <circle cx="260" cy="240" r="140" fill="#ffe3ec"/>
    <circle cx="1680" cy="300" r="180" fill="#fff0f7"/>
    <circle cx="300" cy="900" r="200" fill="#fff4f8"/>
  </g>
  <g opacity="0.45">
    <ellipse cx="260" cy="240" rx="60" ry="40" fill="url(#petal)" transform="rotate(-20 260 240)"/>
    <ellipse cx="330" cy="280" rx="40" ry="28" fill="url(#petal)" transform="rotate(15 330 280)"/>
    <ellipse cx="1680" cy="320" rx="70" ry="46" fill="url(#petal)" transform="rotate(10 1680 320)"/>
    <ellipse cx="1740" cy="360" rx="46" ry="32" fill="url(#petal)" transform="rotate(-15 1740 360)"/>
    <ellipse cx="300" cy="900" rx="80" ry="52" fill="url(#petal)" transform="rotate(8 300 900)"/>
    <ellipse cx="370" cy="940" rx="50" ry="34" fill="url(#petal)" transform="rotate(-12 370 940)"/>
  </g>
  <g opacity="0.08">
    <rect x="0" y="0" width="1920" height="1080" fill="#b03060"/>
  </g>
</svg>
